<svg width="16" height="18" viewBox="0 0 16 18" fill="none" xmlns="http://www.w3.org/2000/svg">
<path d="M13.0909 0V2.45455H15.5455V4.09091H13.0909V6.54545H11.4545V4.09091H9V2.45455H11.4545V0H13.0909ZM6.54545 9.81818C5.64545 9.81818 4.90909 9.08182 4.90909 8.18182C4.90909 7.28182 5.64545 6.54545 6.54545 6.54545C7.44545 6.54545 8.18182 7.28182 8.18182 8.18182C8.18182 9.08182 7.44545 9.81818 6.54545 9.81818ZM7.36364 1.68545V3.33818C7.09299 3.29542 6.81946 3.27353 6.54545 3.27273C3.80455 3.27273 1.63636 5.37545 1.63636 8.34545C1.63636 10.26 3.23182 12.7964 6.54545 15.8236C9.85909 12.7964 11.4545 10.2682 11.4545 8.34545V8.18182H13.0909V8.34545C13.0909 11.0618 10.9064 14.2773 6.54545 18C2.18455 14.2773 0 11.0618 0 8.34545C0 4.27091 3.10909 1.63636 6.54545 1.63636C6.82364 1.63636 7.09364 1.65273 7.36364 1.68545Z" fill="black"/>
</svg>
